<?xml version="1.0" standalone="no"?>
<!DOCTYPE svg PUBLIC "-//W3C//DTD SVG 20010904//EN"
 "http://www.w3.org/TR/2001/REC-SVG-20010904/DTD/svg10.dtd">
<svg version="1.0" xmlns="http://www.w3.org/2000/svg"
 width="500.000000pt" height="500.000000pt" viewBox="0 0 500.000000 500.000000"
 preserveAspectRatio="xMidYMid meet">

<g transform="translate(0.000000,500.000000) scale(0.100000,-0.100000)"
fill="#000000" stroke="none">
<path d="M2374 3760 c-12 -5 -25 -13 -29 -19 -3 -6 -11 -9 -16 -6 -5 4 -9 3
-9 0 0 -10 108 -212 129 -243 11 -15 142 -241 292 -502 273 -477 723 -1254
827 -1428 30 -51 63 -97 72 -102 18 -10 84 15 76 28 -2 4 -43 77 -91 162 -316
558 -1223 2122 -1229 2119 0 0 -11 -4 -22 -9z"/>
<path d="M2315 3383 c-14 -76 -127 -399 -196 -562 -179 -423 -467 -897 -812
-1339 -64 -82 -99 -116 -176 -171 -128 -92 -264 -199 -274 -217 -11 -20 0 -52
24 -64 25 -14 36 -7 183 105 903 689 1655 815 2327 389 l90 -57 29 28 c37 35
34 39 -85 118 -165 108 -353 187 -548 229 -151 32 -455 33 -614 0 -228 -46
-443 -123 -661 -238 -68 -36 -120 -59 -116 -52 4 7 35 51 69 98 229 318 439
673 582 983 155 337 254 638 223 675 -2 1 -4 7 -5 12 -1 6 -4 12 -5 15 -1 3
-4 10 -5 15 -1 6 -3 11 -4 13 -2 1 -5 13 -7 26 -7 37 -11 36 -19 -6z"/>
<path d="M2999 3126 l34 -35 -54 -4 -54 -3 62 -2 c57 -2 63 -5 84 -33 18 -26
19 -33 8 -40 -8 -5 -19 -9 -26 -9 -6 0 -14 -4 -17 -9 -4 -5 10 -4 30 2 28 8
37 8 44 -2 5 -9 9 -10 11 -2 2 6 28 14 57 18 32 3 51 10 49 17 -5 16 -71 46
-124 55 -31 6 -56 20 -82 45 -47 46 -66 47 -22 2z m180 -82 c41 -17 39 -19
-21 -27 -44 -6 -48 -5 -69 25 l-22 31 39 -7 c21 -5 54 -14 73 -22z"/>
<path d="M2940 3141 c0 -6 5 -13 10 -16 6 -3 10 1 10 9 0 9 -4 16 -10 16 -5 0
-10 -4 -10 -9z"/>
<path d="M2521 2981 c-14 -9 -30 -110 -31 -189 l0 -54 -40 7 c-57 10 -82 -1
-78 -33 2 -22 15 -33 68 -58 55 -27 61 -32 40 -35 -14 -2 -26 -12 -28 -21 -3
-15 4 -18 50 -18 84 0 127 32 114 84 -4 17 -19 33 -43 44 l-36 17 7 127 c6
125 3 144 -23 129z m54 -322 c9 -13 6 -16 -27 -24 -23 -6 -26 -4 -21 14 6 22
37 29 48 10z"/>
<path d="M3050 2955 c0 -13 103 -185 111 -185 5 0 -4 24 -21 53 -17 28 -41 71
-53 95 -18 36 -37 55 -37 37z"/>
<path d="M3105 2921 c-3 -5 4 -16 15 -24 12 -8 20 -20 18 -28 -2 -7 6 -14 17
-16 15 -3 17 -2 6 5 -11 8 -10 12 5 20 17 10 16 12 -15 23 -30 11 -32 13 -15
20 18 7 18 8 -3 8 -12 1 -24 -3 -28 -8z"/>
<path d="M3160 2820 c0 -5 10 -10 23 -10 13 0 28 -5 35 -12 7 -7 12 -8 12 -2
0 17 -23 34 -47 34 -13 0 -23 -4 -23 -10z"/>
<path d="M3183 2747 c-62 -12 -71 -28 -12 -20 32 5 44 2 51 -11 11 -20 58 -22
58 -2 0 8 -7 17 -16 20 -8 3 -12 10 -9 16 7 11 0 11 -72 -3z m78 -35 c-7 -2
-18 1 -23 6 -8 8 -4 9 13 5 13 -4 18 -8 10 -11z"/>
<path d="M3200 2696 c0 -15 181 -326 190 -326 5 0 -32 71 -81 158 -88 152
-109 185 -109 168z"/>
<path d="M3335 2673 c-83 -10 -95 -21 -43 -41 25 -9 30 -14 20 -24 -17 -17
-15 -26 11 -39 21 -12 21 -11 7 6 -11 14 -12 19 -2 22 21 8 13 29 -15 44 -27
13 -25 14 45 17 39 2 72 7 72 12 0 10 -35 11 -95 3z"/>
<path d="M3341 2543 c-13 -14 -12 -18 8 -34 13 -11 28 -19 34 -19 6 0 1 8 -12
17 -22 15 -23 17 -7 23 15 5 16 8 4 17 -10 8 -17 7 -27 -4z"/>
<path d="M2378 2509 c-22 -12 -23 -42 -3 -59 21 -17 79 -1 83 23 8 39 -40 60
-80 36z"/>
<path d="M2594 2509 c-3 -5 -14 -9 -24 -9 -10 0 -22 -4 -25 -10 -11 -17 15
-50 39 -50 31 0 71 33 64 52 -7 18 -45 30 -54 17z"/>
<path d="M3360 2468 c0 -5 5 -8 10 -8 6 0 10 -10 10 -22 0 -17 3 -20 9 -9 6 9
18 12 32 8 23 -6 24 -6 4 9 -11 9 -19 18 -18 22 1 4 -10 7 -23 7 -13 0 -24 -3
-24 -7z"/>
<path d="M2457 2345 c-32 -30 -31 -28 -12 -65 24 -46 82 -36 99 17 5 15 0 29
-17 47 -30 32 -35 32 -70 1z"/>
<path d="M2252 2347 c-19 -23 -24 -63 -9 -75 16 -14 68 -19 85 -8 7 4 12 23
12 42 0 28 -5 36 -26 44 -34 13 -49 13 -62 -3z"/>
<path d="M2665 2330 c-22 -25 -18 -56 10 -74 23 -15 27 -15 50 0 19 12 25 25
25 50 0 19 -3 35 -7 36 -35 7 -65 2 -78 -12z"/>
<path d="M2665 2134 c-179 -14 -435 -47 -545 -70 -36 -7 -68 -14 -72 -14 -5 0
-8 -10 -8 -21 0 -17 4 -20 23 -16 12 3 49 13 82 21 87 22 359 47 597 55 114 4
210 10 213 13 4 4 4 16 0 27 -8 25 -29 25 -290 5z"/>
</g>
</svg>
